<?xml version="1.0" encoding="UTF-8" standalone="no"?>
<svg
   xmlns:dc="http://purl.org/dc/elements/1.1/"
   xmlns:cc="http://creativecommons.org/ns#"
   xmlns:rdf="http://www.w3.org/1999/02/22-rdf-syntax-ns#"
   xmlns:svg="http://www.w3.org/2000/svg"
   xmlns="http://www.w3.org/2000/svg"
   xmlns:sodipodi="http://sodipodi.sourceforge.net/DTD/sodipodi-0.dtd"
   xmlns:inkscape="http://www.inkscape.org/namespaces/inkscape"
   viewBox="0 0 177.22746 51.262665"
   height="51.262665"
   width="177.22746"
   xml:space="preserve"
   id="svg2"
   version="1.1"
   sodipodi:docname="hyperx.svg"
   inkscape:version="0.92.4 (5da689c313, 2019-01-14)"><sodipodi:namedview
     pagecolor="#ffffff"
     bordercolor="#666666"
     borderopacity="1"
     objecttolerance="10"
     gridtolerance="10"
     guidetolerance="10"
     inkscape:pageopacity="0"
     inkscape:pageshadow="2"
     inkscape:window-width="2560"
     inkscape:window-height="1566"
     id="namedview59"
     showgrid="false"
     inkscape:zoom="3.8161497"
     inkscape:cx="107.90709"
     inkscape:cy="98.454782"
     inkscape:window-x="-11"
     inkscape:window-y="-11"
     inkscape:window-maximized="1"
     inkscape:current-layer="g12"
     fit-margin-top="0"
     fit-margin-left="0"
     fit-margin-right="0"
     fit-margin-bottom="0" /><metadata
     id="metadata8"><rdf:RDF><cc:Work
         rdf:about=""><dc:format>image/svg+xml</dc:format><dc:type
           rdf:resource="http://purl.org/dc/dcmitype/StillImage" /><dc:title></dc:title><dc:title></dc:title></cc:Work></rdf:RDF></metadata><defs
     id="defs6"><clipPath
       id="clipPath18"
       clipPathUnits="userSpaceOnUse"><path
         id="path16"
         d="M 0,162.937 H 331.748 V 0 H 0 Z"
         inkscape:connector-curvature="0" /></clipPath></defs><g
     transform="matrix(1.3333333,0,0,-1.3333333,-51.438132,136.152)"
     id="g10"><g
       id="g12"><g
         clip-path="url(#clipPath18)"
         id="g14"><g
           transform="translate(68.1201,87.4546)"
           id="g82"><path
             id="path84"
             style="fill:#e51636;fill-opacity:1;fill-rule:nonzero;stroke:none"
             d="m 0,0 h 4.403 c 0,0 0.991,3.317 1.073,3.585 0.205,0.116 9.34,5.342 9.34,5.342 l 0.952,3.168 h -4.402 c 0,0 -0.4,-1.344 -0.47,-1.584 C 10.693,10.398 4.27,6.737 4.028,6.598 c -0.211,0.185 -3.992,3.451 -4.347,3.754 0.117,0.387 0.527,1.743 0.527,1.743 h -0.41 -4.002 l -0.9,-3.031 c 0,0 5.838,-5.06 6.207,-5.375 C 0.953,3.18 0,0 0,0"
             inkscape:connector-curvature="0" /></g><g
           transform="translate(105.2534,92.3638)"
           id="g86"><path
             id="path88"
             style="fill:#e51636;fill-opacity:1;fill-rule:nonzero;stroke:none"
             d="m 0,0 -1.471,-4.909 h 19.968 l 0.955,3.19 H 4.297 c 0.963,0.411 6.679,2.808 6.679,2.808 0,0 -4.552,2.538 -5.222,2.905 h 15.415 l 0.954,3.192 H 21.713 2.153 L 0.725,2.422 c 0,0 1.397,-0.788 2.153,-1.225 C 1.947,0.814 0,0 0,0"
             inkscape:connector-curvature="0" /></g><g
           transform="translate(46.5786,99.5493)"
           id="g90"><path
             id="path92"
             style="fill:#e51636;fill-opacity:1;fill-rule:nonzero;stroke:none"
             d="M 0,0 H -4.37 L -8,-12.095 h 4.378 z"
             inkscape:connector-curvature="0" /></g><g
           transform="translate(61.7383,99.5493)"
           id="g94"><path
             id="path96"
             style="fill:#e51636;fill-opacity:1;fill-rule:nonzero;stroke:none"
             d="m 0,0 h -3.994 c 0,0 -1.208,-4.03 -1.337,-4.45 h -10.013 l -0.962,-3.195 h 10.024 c -0.251,-0.822 -1.339,-4.45 -1.339,-4.45 h 4.404 L 0.404,0 Z"
             inkscape:connector-curvature="0" /></g><g
           transform="translate(88.8696,96.3579)"
           id="g98"><path
             id="path100"
             style="fill:#e51636;fill-opacity:1;fill-rule:nonzero;stroke:none"
             d="M 0,0 H 11.161 C 11.103,-0.187 10.919,-0.794 10.857,-1.001 10.661,-1.079 7.182,-2.545 7.104,-2.575 H 0.368 l -0.954,-3.19 h 8.401 l 6.884,2.892 1.819,6.064 H 16.116 -3.441 L -7.08,-8.903 h 4.407 z"
             inkscape:connector-curvature="0" /></g><g
           transform="translate(127.0459,91.5034)"
           id="g102"><path
             id="path104"
             style="fill:#e51636;fill-opacity:1;fill-rule:nonzero;stroke:none"
             d="m 0,0 -1.213,-4.049 h 4.401 c 0,0 0.75,2.515 0.923,3.071 C 2.786,-0.611 1.416,-0.289 0,0"
             inkscape:connector-curvature="0" /></g><g
           transform="translate(132.9102,96.3579)"
           id="g106"><path
             id="path108"
             style="fill:#e51636;fill-opacity:1;fill-rule:nonzero;stroke:none"
             d="M 0,0 H 11.155 C 11.018,-0.467 10.878,-0.936 10.823,-1.126 10.614,-1.208 7.466,-2.545 7.397,-2.575 H -0.779 C -0.612,-2.031 -0.104,-0.331 0,0 m 8.305,-5.604 6.35,2.589 1.863,6.206 H 16.102 -3.454 L -5.356,-3.16 c 3.92,-0.128 8.735,-0.741 13.661,-2.444"
             inkscape:connector-curvature="0" /></g><g
           transform="translate(168.9805,63.667)"
           id="g110"><path
             id="path112"
             style="fill:#bdbcbc;fill-opacity:1;fill-rule:nonzero;stroke:none"
             d="m 0,0 c -2.994,8.887 -7.531,15.197 -12.673,19.661 4.608,4.486 7.752,10.565 8.318,18.786 0,0 -1.882,-8.176 -11.971,-15.98 -15.002,10.213 -32.946,7.311 -32.946,7.311 11.937,-0.853 21.679,-4.975 29.257,-9.899 -9.451,-6.002 -24.425,-11.183 -48.022,-11.356 0,0 33.775,-5.089 52.172,8.433 C -5.256,8.872 0,0 0,0"
             inkscape:connector-curvature="0" /></g><g
           transform="translate(170.9912,96.9878)"
           id="g114"><path
             id="path116"
             style="fill:#231f20;fill-opacity:1;fill-rule:nonzero;stroke:none"
             d="M 0,0 -0.094,1.505 C -0.103,1.702 -0.103,1.947 -0.113,2.22 H -0.141 C -0.207,1.994 -0.282,1.693 -0.357,1.458 L -0.818,0.037 h -0.528 l -0.46,1.459 C -1.854,1.693 -1.929,1.994 -1.984,2.22 h -0.029 c 0,-0.235 -0.009,-0.48 -0.019,-0.715 L -2.126,0 h -0.489 l 0.187,2.559 h 0.763 l 0.442,-1.251 c 0.056,-0.198 0.104,-0.386 0.169,-0.65 h 0.01 c 0.065,0.236 0.122,0.452 0.179,0.64 l 0.441,1.261 H 0.311 L 0.508,0 Z M -2.766,2.559 V 2.135 H -3.584 V 0 H -4.093 V 2.135 H -4.91 v 0.424 z"
             inkscape:connector-curvature="0" /></g></g></g></g></svg>